<svg width="397" height="369" viewBox="0 0 397 369" fill="none" xmlns="http://www.w3.org/2000/svg">
<g opacity="0.1">
<mask id="mask0_1_470" style="mask-type:alpha" maskUnits="userSpaceOnUse" x="0" y="0" width="394" height="361">
<rect x="392.5" y="0.5" width="360" height="392" transform="rotate(90 392.5 0.5)" fill="url(#paint0_linear_1_470)" stroke="#6246E5"/>
</mask>
<g mask="url(#mask0_1_470)">
<path d="M149.505 453.92C80.1725 453.92 23.9659 397.635 23.9659 328.202C23.9659 258.769 80.1725 202.484 149.505 202.484C218.838 202.484 275.045 258.769 275.045 328.202C275.045 397.635 218.838 453.92 149.505 453.92Z" stroke="#6246E5"/>
<path d="M162.773 458.902C85.1967 458.902 22.3076 395.925 22.3076 318.237C22.3076 240.55 85.1967 177.573 162.773 177.573C240.349 177.573 303.238 240.55 303.238 318.237C303.238 395.925 240.349 458.902 162.773 458.902Z" stroke="#6246E5"/>
<path d="M173.552 463.885C88.6489 463.885 19.8199 394.959 19.8199 309.934C19.8199 224.909 88.6489 155.983 173.552 155.983C258.456 155.983 327.285 224.909 327.285 309.934C327.285 394.959 258.456 463.885 173.552 463.885Z" stroke="#6246E5"/>
<path d="M189.308 467.206C97.9928 467.206 23.9663 393.076 23.9663 301.63C23.9663 210.184 97.9929 136.054 189.308 136.054C280.623 136.054 354.649 210.184 354.649 301.63C354.649 393.076 280.623 467.206 189.308 467.206Z" stroke="#6246E5"/>
<path d="M204.648 470.528C107.151 470.528 28.1122 391.378 28.1122 293.742C28.1122 196.105 107.151 116.955 204.648 116.955C302.145 116.955 381.183 196.105 381.183 293.742C381.183 391.379 302.145 470.528 204.648 470.528Z" stroke="#6246E5"/>
<path d="M222.061 474.68C114.947 474.68 28.1122 387.723 28.1122 280.456C28.1122 173.188 114.947 86.2314 222.061 86.2314C329.176 86.2314 416.01 173.188 416.01 280.456C416.01 387.723 329.176 474.68 222.061 474.68Z" stroke="#6246E5"/>
</g>
</g>
<defs>
<linearGradient id="paint0_linear_1_470" x1="649.035" y1="11.0261" x2="469.689" y2="426.133" gradientUnits="userSpaceOnUse">
<stop stop-color="#747DEF"/>
<stop offset="1" stop-color="#5E3BE1"/>
</linearGradient>
</defs>
</svg>
